{"title":"Marvels Agents of S.H.I.E.L.D. S01E08 HDTV 480p x264 - VYTO [P2P","uid":9220673,"size":145113683,"categoryP":"video","categoryS":"tv_shows","magnet":"?xt=urn:btih:dae4e77231afcdf9bddba4b090978061dcbc72e9&amp;dn=Marvels+Agents+of+S.H.I.E.L.D.+S01E08+HDTV+480p+x264+-+VYTO+%5BP2P&amp;tr=udp%3A%2F%2Ftracker.openbittorrent.com%3A80&amp;tr=udp%3A%2F%2Fopen.demonii.com%3A1337&amp;tr=udp%3A%2F%2Ftracker.coppersurfer.tk%3A6969&amp;tr=udp%3A%2F%2Fexodus.desync.com%3A6969","seeders":3,"leechers":0,"uploader":"Vitamin_X","files":-1,"time":1384928740,"description":"_______ Visit us at our Semi Public Bittorrent Community ________\n  &lt;a href=&quot;\nhttp://p2pdl.com&quot; rel=&quot;nofollow&quot; target=&quot;_NEW&quot;&gt;\nhttp://p2pdl.com&lt;/a&gt;  _____________________________ &lt;a href=&quot; http://p2pdl.com&quot; rel=&quot;nofollow&quot; target=&quot;_NEW&quot;&gt; http://p2pdl.com&lt;/a&gt;\n\n\nMarvels Agents of S.H.I.E.L.D. S01E08 HDTV 480p x264 - VYTO\n\n\nMarvels Agents of S.H.I.E.L.D. S01E08 (The Well) \n &lt;a href=&quot;\nhttp://www.imdb.com/title/tt3252298/&quot; rel=&quot;nofollow&quot; target=&quot;_NEW&quot;&gt;\nhttp://www.imdb.com/title/tt3252298/&lt;/a&gt;\n\nThe missions of the Strategic Homeland Intervention, Enforcement and Logistics Division. \n\nGeneral\nFormat                         : MPEG-4\nFile size                      : 135 MiB\nDuration                       : 42mn 43s\nOverall bit rate mode          : Variable\nOverall bit rate               : 443 Kbps\n\nVideo\nFormat                         : AVC\nBit rate                       : 401 Kbps\nWidth                          : 720 pixels\nHeight                         : 400 pixels\nDisplay aspect ratio           : 16:9\nFrame rate mode                : Constant\nFrame rate                     : 23.976 fps\nBit depth                      : 10 bits\nStream size                    : 122 MiB (90%)\nWriting library                : x264 core 138 r2358 9e941d1\n\nAudio\nFormat                         : AAC\nBit rate                       : 39.8 Kbps\nChannel count                  : 2 channels\nChannel positions              : Front: L R\nSampling rate                  : 48.0 KHz / 24.0 KHz\nStream size                    : 12.2 MiB (9%)\n\nSubtitle                       : N/a\n\nSource                         : 720p.HDTV.X264-DIMENSION\n\nScreenshots:\n &lt;a href=&quot;\nhttp://ultraimg.com/images/gOuLN.png&quot; rel=&quot;nofollow&quot; target=&quot;_NEW&quot;&gt;\nhttp://ultraimg.com/images/gOuLN.png&lt;/a&gt; &lt;a href=&quot;\nhttp://ultraimg.com/images/Qkczi.png&quot; rel=&quot;nofollow&quot; target=&quot;_NEW&quot;&gt;\nhttp://ultraimg.com/images/Qkczi.png&lt;/a&gt; &lt;a href=&quot;\nhttp://ultraimg.com/images/96RPd.png&quot; rel=&quot;nofollow&quot; target=&quot;_NEW&quot;&gt;\nhttp://ultraimg.com/images/96RPd.png&lt;/a&gt; &lt;a href=&quot;\nhttp://ultraimg.com/images/PyVf6.png&quot; rel=&quot;nofollow&quot; target=&quot;_NEW&quot;&gt;\nhttp://ultraimg.com/images/PyVf6.png&lt;/a&gt; &lt;a href=&quot;\nhttp://ultraimg.com/images/aNfXI.png&quot; rel=&quot;nofollow&quot; target=&quot;_NEW&quot;&gt;\nhttp://ultraimg.com/images/aNfXI.png&lt;/a&gt;\n\n----------------------------------------------------------------------------------------------------\n\n\nEncoded using revolutionary 10bit encoding, which enables us to provide you more crispier \nand sharper images at small sizes, just make sure you follow our instructions without a fault.\nRecommend to you to use latest version of VLC player. Install K-Lite Codec Pack or shark007 codecs\nin case of any kind of problem in playback (For non-VLC Media Player users). Alternatively, install\nCore AVC codecs, the fastest decoder that there is coupled with Community Center Codec Pack and play\non Windows Media Player Classic. Check sample to be sure.\nEnjoy!\n\nEncoder Notes:Looking For Early Access To Anything You Can Provide DVDScr, R5, DVDR, BluRay, Direct\nAudio, Music Releases and Seedboxes. We require dedicated servers, so as to do more \nand fast releases of movies.\nIf You Got anything to offer please contact us at &quot;&lt;a class=&quot;__cf_email__&quot; href=&quot;/cdn-cgi/l/email-protection&quot; data-cfemail=&quot;7f0f0d183f170a0c17511c1012&quot;&gt;[email&amp;#160;protected]&lt;/a&gt;&lt;script cf-hash='f9e31' type=&quot;text/javascript&quot;&gt;\n/* &lt;![CDATA[ */!function(){try{var t=&quot;currentScript&quot;in document?document.currentScript:function(){for(var t=document.getElementsByTagName(&quot;script&quot;),e=t.length;e--;)if(t[e].getAttribute(&quot;cf-hash&quot;))return t[e]}();if(t&amp;&amp;t.previousSibling){var e,r,n,i,c=t.previousSibling,a=c.getAttribute(&quot;data-cfemail&quot;);if(a){for(e=&quot;&quot;,r=parseInt(a.substr(0,2),16),n=2;a.length-n;n+=2)i=parseInt(a.substr(n,2),16)^r,e+=String.fromCharCode(i);e=document.createTextNode(e),c.parentNode.replaceChild(e,c)}}}catch(u){}}();/* ]]&gt; */&lt;/script&gt;&quot;.\n\nFacebook Fan Page:  \nSearch P2PDL on FB and don't forget to hit like!!!\n\nSupport us, please consider a donation.\n\nFor more of our team uploads visit @           &lt;a href=&quot;\nhttp://thepiratebay.se/user/varuttee&quot; rel=&quot;nofollow&quot; target=&quot;_NEW&quot;&gt;\nhttp://thepiratebay.se/user/varuttee&lt;/a&gt;","torrent":{"xt":"urn:btih:dae4e77231afcdf9bddba4b090978061dcbc72e9","amp;dn":"Marvels+Agents+of+S.H.I.E.L.D.+S01E08+HDTV+480p+x264+-+VYTO+%5BP2P","amp;tr":["udp%3A%2F%2Ftracker.openbittorrent.com%3A80","udp%3A%2F%2Fopen.demonii.com%3A1337","udp%3A%2F%2Ftracker.coppersurfer.tk%3A6969","udp%3A%2F%2Fexodus.desync.com%3A6969"],"infoHash":"dae4e77231afcdf9bddba4b090978061dcbc72e9","infoHashBuffer":{"type":"Buffer","data":[218,228,231,114,49,175,205,249,189,219,164,176,144,151,128,97,220,188,114,233]},"announce":[],"urlList":[]}}